HIERARCHY
ROOT Hips
{
 OFFSET 0.000000 0.000000 0.000000
 CHANNELS 6 Xposition Yposition Zposition Yrotation Xrotation Zrotation
 JOINT Chest
 {
  OFFSET 0.000000 10.080317 -0.001081
  CHANNELS 3 Yrotation Xrotation Zrotation
  JOINT Chest2
  {
   OFFSET 0.000000 11.096852 0.001963
   CHANNELS 3 Yrotation Xrotation Zrotation
   JOINT Chest3
   {
    OFFSET 0.000000 10.026525 0.000000
    CHANNELS 3 Yrotation Xrotation Zrotation
    JOINT Chest4
    {
     OFFSET 0.000000 10.026525 0.000000
     CHANNELS 3 Yrotation Xrotation Zrotation
     JOINT Neck
     {
      OFFSET 0.000000 14.108171 0.000000
      CHANNELS 3 Yrotation Xrotation Zrotation
      JOINT Head
      {
       OFFSET 0.000000 9.333493 0.004668
       CHANNELS 3 Yrotation Xrotation Zrotation
       End Site
       {
        OFFSET 0.000000 17.851786 0.002438
       }
      }
     }
     JOINT RightCollar
     {
      OFFSET -3.071622 7.873185 0.000000
      CHANNELS 3 Yrotation Xrotation Zrotation
      JOINT RightShoulder
      {
       OFFSET -14.378659 0.000000 0.000000
       CHANNELS 3 Yrotation Xrotation Zrotation
       JOINT RightElbow
       {
        OFFSET -30.778728 0.000000 0.000000
        CHANNELS 3 Yrotation Xrotation Zrotation
        JOINT RightWrist
        {
         OFFSET -25.164217 0.000000 0.000000
         CHANNELS 3 Yrotation Xrotation Zrotation
         End Site
         {
          OFFSET -18.796788 0.000000 0.000000
         }
        }
       }
      }
     }
     JOINT LeftCollar
     {
      OFFSET 3.071622 7.873185 0.000000
      CHANNELS 3 Yrotation Xrotation Zrotation
      JOINT LeftShoulder
      {
       OFFSET 14.378659 0.000000 0.000000
       CHANNELS 3 Yrotation Xrotation Zrotation
       JOINT LeftElbow
       {
        OFFSET 30.778728 0.000000 0.000000
        CHANNELS 3 Yrotation Xrotation Zrotation
        JOINT LeftWrist
        {
         OFFSET 25.164217 0.000000 0.000000
         CHANNELS 3 Yrotation Xrotation Zrotation
         End Site
         {
          OFFSET 18.796788 0.000000 0.000000
         }
        }
       }
      }
     }
    }
   }
  }
 }
 JOINT RightHip
 {
  OFFSET -8.194923 0.005295 0.000540
  CHANNELS 3 Yrotation Xrotation Zrotation
  JOINT RightKnee
  {
   OFFSET 0.000000 -42.473320 -0.000511
   CHANNELS 3 Yrotation Xrotation Zrotation
   JOINT RightAnkle
   {
    OFFSET 0.000000 -41.474259 -0.000865
    CHANNELS 3 Yrotation Xrotation Zrotation
    JOINT RightToe
    {
     OFFSET 0.000000 -7.354994 16.712725
     CHANNELS 3 Yrotation Xrotation Zrotation
     End Site
     {
      OFFSET 0.000000 -1.553903 6.764158
     }
    }
   }
  }
 }
 JOINT LeftHip
 {
  OFFSET 8.194923 0.005295 0.000540
  CHANNELS 3 Yrotation Xrotation Zrotation
  JOINT LeftKnee
  {
   OFFSET 0.000000 -42.473320 -0.000511
   CHANNELS 3 Yrotation Xrotation Zrotation
   JOINT LeftAnkle
   {
    OFFSET 0.000000 -41.474259 -0.000865
    CHANNELS 3 Yrotation Xrotation Zrotation
    JOINT LeftToe
    {
     OFFSET 0.000000 -7.354994 16.712725
     CHANNELS 3 Yrotation Xrotation Zrotation
     End Site
     {
      OFFSET 0.000000 -1.553903 6.764158
     }
    }
   }
  }
 }
}
MOTION
Frames: 14
Frame Time: 0.016667
0.000000 91.111157 0.000000 0.000000 -5.826342 0.000000 0.000000 11.116423 0.000000 0.000000 -5.290081 0.000000 0.000000 0.000000 0.000000 0.000000 0.000000 0.000000 0.000000 12.665069 0.000000 0.000000 0.575450 0.000000 0.000000 0.000000 0.000000 0.000000 0.000000 0.000000 2.337306 0.000000 0.000000 -2.337306 0.000000 0.000000 0.000000 0.000000 0.000000 0.000000 0.000000 0.000000 -2.337306 0.000000 0.000000 2.337306 0.000000 0.000000 0.000000 8.578828 0.000000 0.000000 1.905768 0.000000 0.000000 -4.658254 0.000000 0.000000 0.000000 0.000000 0.000000 8.578828 0.000000 0.000000 1.905768 0.000000 0.000000 -4.658254 0.000000 0.000000 0.000000 0.000000
-52.405553 92.778745 65.928701 -2.520550 -5.912273 -0.984288 -1.606154 2.758246 -0.651243 -0.746886 1.228814 -0.249526 -0.746886 1.228814 -0.249526 -0.559641 0.921918 -0.185636 -2.869645 19.062929 3.027464 -6.215703 -0.548833 6.454605 -1.028574 0.187643 10.449242 -3.214747 -4.256723 68.789559 20.372265 15.273781 12.038908 -3.715927 2.691975 -8.237663 -1.174667 1.063921 -6.609473 -0.643560 -9.064891 -70.076507 -17.863268 26.182653 -19.323196 4.648105 5.493312 14.645563 -5.819776 7.941959 -2.623815 -1.118126 1.582810 -0.241212 -9.626923 -3.378176 2.953253 0.013749 -0.094131 0.047318 3.103654 10.425802 4.977307 -4.740706 3.161644 0.088188 1.404003 -6.453955 -3.188953 0.017542 0.137716 0.001767
-52.401558 92.778823 65.955224 -2.501681 -5.871749 -0.981145 -1.615797 2.767633 -0.644668 -0.750570 1.232994 -0.246860 -0.750570 1.232994 -0.246860 -0.562408 0.925050 -0.183624 -2.842909 19.046734 3.007378 -6.161570 -0.582556 6.410518 -1.055940 0.164835 10.435292 -3.214601 -4.199584 68.849026 20.316530 15.307186 12.015161 -3.732451 2.694474 -8.235992 -1.202569 1.058088 -6.630753 -0.649368 -9.080307 -70.115314 -17.926516 26.156155 -19.365393 4.660354 5.482930 14.652506 -5.836128 7.932602 -2.628427 -1.131118 1.561989 -0.242878 -9.616093 -3.395335 2.953763 0.013860 -0.092561 0.044725 3.097996 10.423466 4.977462 -4.750419 3.116069 0.079936 1.406788 -6.443799 -3.189798 0.016031 0.130631 0.008562
-52.400582 92.776926 65.980404 -2.480708 -5.833933 -0.981930 -1.644509 2.760525 -0.629206 -0.762552 1.229509 -0.241440 -0.762552 1.229509 -0.241440 -0.571406 0.922435 -0.179539 -2.815418 19.042028 2.976589 -6.101901 -0.595850 6.345847 -1.045917 0.185376 10.408355 -3.207153 -4.164554 68.898674 20.265612 15.337023 12.022429 -3.726144 2.704674 -8.235096 -1.182783 1.074941 -6.670733 -0.695137 -9.066628 -70.145387 -18.013505 26.135642 -19.439435 4.655147 5.477433 14.642549 -5.856271 7.926292 -2.629170 -1.119260 1.541455 -0.242463 -9.655778 -3.412722 2.959209 0.014112 -0.089459 0.038295 3.095749 10.426903 4.973551 -4.771175 3.063732 0.095293 1.417251 -6.438226 -3.202329 0.016880 0.131297 0.011651
-52.395876 92.774068 66.007259 -2.466992 -5.784888 -0.976225 -1.671732 2.764234 -0.618343 -0.774482 1.230280 -0.237670 -0.774482 1.230280 -0.237670 -0.580361 0.923013 -0.176687 -2.790970 19.026884 2.947774 -6.049093 -0.628059 6.286413 -1.028756 0.181629 10.394894 -3.206094 -4.116378 68.932910 20.281330 15.361333 12.059340 -3.738279 2.708421 -8.221553 -1.161722 1.084928 -6.700770 -0.725510 -9.078857 -70.179977 -18.104736 26.124009 -19.531618 4.642990 5.488945 14.637846 -5.860605 7.914387 -2.633614 -1.110019 1.509267 -0.243870 -9.660707 -3.426887 2.970220 0.013725 -0.085666 0.028002 3.089888 10.410473 4.967385 -4.765344 3.031937 0.091982 1.406815 -6.444245 -3.202045 0.015481 0.130985 0.014073
-52.393788 92.771628 66.027222 -2.458307 -5.730887 -0.966830 -1.687634 2.753643 -0.620714 -0.782042 1.225816 -0.239179 -0.782042 1.225816 -0.239179 -0.586029 0.919670 -0.177809 -2.771868 19.016393 2.930092 -6.009258 -0.650343 6.248714 -1.036097 0.207461 10.405697 -3.209401 -4.070836 68.976318 20.322403 15.394863 12.119521 -3.734086 2.693125 -8.226907 -1.171984 1.122388 -6.707764 -0.757230 -9.096294 -70.227215 -18.197449 26.113398 -19.627414 4.612792 5.473164 14.651633 -5.863930 7.876395 -2.633243 -1.100593 1.505922 -0.258152 -9.663100 -3.442453 2.981827 0.015301 -0.086679 0.024085 3.084786 10.374821 4.954416 -4.756743 3.022664 0.094876 1.398069 -6.457363 -3.208821 0.014188 0.130914 0.017413
-52.387769 92.771857 66.052058 -2.453360 -5.680534 -0.957547 -1.702216 2.754055 -0.622538 -0.788263 1.225486 -0.238367 -0.788263 1.225486 -0.238367 -0.590697 0.919424 -0.177188 -2.766284 19.002616 2.917114 -5.995840 -0.677305 6.224094 -1.062541 0.246426 10.409450 -3.210642 -4.068054 69.032517 20.365089 15.442886 12.172674 -3.725811 2.699599 -8.234306 -1.181672 1.140495 -6.713642 -0.792155 -9.082315 -70.287814 -18.305749 26.120468 -19.706534 4.599076 5.460149 14.655869 -5.846294 7.832869 -2.637315 -1.098514 1.527280 -0.261574 -9.694970 -3.466563 2.993362 0.014869 -0.092574 0.020768 3.088587 10.332172 4.936673 -4.762889 3.038382 0.100254 1.403471 -6.473560 -3.209429 0.011702 0.121794 0.016180
-52.381857 92.770253 66.075576 -2.455155 -5.621752 -0.954443 -1.712111 2.756105 -0.618852 -0.792169 1.226149 -0.235100 -0.792169 1.226149 -0.235100 -0.593632 0.919918 -0.174729 -2.762980 18.976225 2.903549 -5.987222 -0.727516 6.199925 -1.089894 0.266579 10.392816 -3.180420 -4.046233 69.086626 20.419499 15.468391 12.235631 -3.742114 2.688945 -8.236389 -1.190146 1.138342 -6.733825 -0.846814 -9.078788 -70.327011 -18.408474 26.110444 -19.816290 4.601824 5.469086 14.657965 -5.835214 7.763193 -2.634387 -1.086734 1.582139 -0.267125 -9.708024 -3.511907 3.001681 0.016745 -0.093821 0.022739 3.095410 10.284426 4.925730 -4.771078 3.048722 0.101704 1.413481 -6.495496 -3.197836 0.009584 0.121267 0.007638
-52.378483 92.766810 66.105962 -2.464604 -5.557098 -0.956691 -1.713526 2.751076 -0.614421 -0.792976 1.223195 -0.233063 -0.792976 1.223195 -0.233063 -0.594243 0.917700 -0.173204 -2.759355 18.958991 2.889844 -5.977368 -0.760784 6.174807 -1.113652 0.296382 10.381389 -3.162193 -4.013124 69.158851 20.468302 15.497269 12.292706 -3.748837 2.692083 -8.230362 -1.187076 1.156563 -6.738723 -0.913768 -9.063191 -70.376567 -18.518663 26.097454 -19.920379 4.589941 5.464138 14.654503 -5.840905 7.684842 -2.613187 -1.039438 1.652455 -0.301528 -9.744417 -3.578474 3.025916 0.017669 -0.086016 0.025249 3.084296 10.244118 4.916933 -4.749547 3.049323 0.105938 1.417833 -6.518935 -3.188053 0.009768 0.120977 0.000379
-52.380980 92.763650 66.138274 -2.488379 -5.489749 -0.968044 -1.718449 2.745759 -0.607214 -0.795235 1.221344 -0.231193 -0.795235 1.221344 -0.231193 -0.595942 0.916311 -0.171799 -2.748314 18.941377 2.886275 -5.957174 -0.794552 6.165903 -1.117221 0.311731 10.368068 -3.117389 -3.970919 69.223412 20.506066 15.499490 12.349761 -3.758698 2.699716 -8.222750 -1.193076 1.158073 -6.751019 -0.966318 -9.053210 -70.401347 -18.626436 26.075960 -20.047554 4.576605 5.464091 14.666520 -5.847940 7.595345 -2.583160 -1.003343 1.740545 -0.327785 -9.737363 -3.656849 3.040325 0.018961 -0.079410 0.028451 3.070819 10.221451 4.924880 -4.739960 3.015392 0.104107 1.445998 -6.531024 -3.178560 0.009664 0.122130 -0.006930
-52.383490 92.758394 66.174795 -2.528813 -5.411005 -0.977541 -1.708264 2.739804 -0.599988 -0.791084 1.217701 -0.228563 -0.791084 1.217701 -0.228563 -0.592835 0.913574 -0.169840 -2.749705 18.930787 2.883283 -5.959454 -0.814305 6.161547 -1.133072 0.312677 10.364661 -3.043990 -3.901897 69.292191 20.550138 15.514449 12.375230 -3.766929 2.711851 -8.185938 -1.227449 1.160513 -6.747750 -1.017859 -9.040010 -70.430821 -18.748505 26.072488 -20.164015 4.582230 5.478468 14.664206 -5.848551 7.478926 -2.548918 -0.957251 1.861979 -0.366796 -9.740392 -3.756318 3.068224 0.017645 -0.069434 0.029333 3.084616 10.203414 4.923464 -4.753608 2.958975 0.125018 1.490392 -6.541641 -3.179729 0.011517 0.127997 -0.013415
-52.382456 92.751781 66.212363 -2.581371 -5.310807 -0.980812 -1.686502 2.729698 -0.600529 -0.782163 1.212803 -0.228239 -0.782163 1.212803 -0.228239 -0.586147 0.909897 -0.169620 -2.751302 18.917584 2.886739 -5.964327 -0.838397 6.169223 -1.159790 0.282832 10.353307 -2.959666 -3.840771 69.360539 20.580719 15.545924 12.418346 -3.763463 2.715685 -8.156385 -1.255195 1.130796 -6.737724 -1.078446 -9.034399 -70.456628 -18.864988 26.088363 -20.308847 4.581177 5.494315 14.684880 -5.829881 7.336290 -2.524286 -0.926555 1.989817 -0.394092 -9.740655 -3.856700 3.089818 0.016920 -0.061592 0.032163 3.089404 10.176135 4.910153 -4.737061 2.885667 0.145766 1.518842 -6.550454 -3.172496 0.011608 0.137901 -0.021689
-52.389196 92.744777 66.260550 -2.647043 -5.194041 -0.990658 -1.674406 2.715077 -0.590032 -0.776070 1.204988 -0.224929 -0.776070 1.204988 -0.224929 -0.581588 0.904029 -0.167160 -2.740247 18.910682 2.887888 -5.944906 -0.851949 6.168259 -1.160376 0.253663 10.336369 -2.883891 -3.788711 69.439875 20.615484 15.611374 12.468194 -3.775683 2.724639 -8.132742 -1.275142 1.090766 -6.739755 -1.132289 -9.024112 -70.488750 -18.931266 26.108771 -20.419388 4.576114 5.498596 14.695827 -5.816869 7.178771 -2.484226 -0.883256 2.129849 -0.427827 -9.739788 -3.980731 3.109042 0.018355 -0.045927 0.036933 3.063377 10.153978 4.910145 -4.695652 2.790132 0.151768 1.564758 -6.553088 -3.170724 0.009367 0.143156 -0.022975
-52.400910 92.738558 66.314775 -2.722018 -5.072538 -1.002547 -1.640183 2.691244 -0.581622 -0.760300 1.195086 -0.224093 -0.760300 1.195086 -0.224093 -0.569766 0.896595 -0.166577 -2.733792 18.905526 2.893736 -5.935281 -0.861558 6.177242 -1.198302 0.224251 10.337435 -2.813833 -3.759401 69.496700 20.650176 15.672363 12.546029 -3.816852 2.734794 -8.108339 -1.308340 1.034402 -6.714895 -1.181827 -8.981254 -70.526586 -19.031974 26.152713 -20.544128 4.593446 5.511542 14.709085 -5.810450 7.015854 -2.435287 -0.794673 2.277452 -0.469816 -9.744207 -4.107227 3.129134 0.019338 -0.036787 0.041352 2.993086 10.144526 4.903122 -4.630037 2.679747 0.165137 1.640688 -6.553538 -3.172004 0.007901 0.145722 -0.027626
